<?xml version="1.0" encoding="utf-8"?>
<!-- Generator: Adobe Illustrator 22.1.0, SVG Export Plug-In . SVG Version: 6.00 Build 0)  -->
<svg version="1.1" id="Calque_1" xmlns="http://www.w3.org/2000/svg" xmlns:xlink="http://www.w3.org/1999/xlink" x="0px" y="0px"
	 viewBox="0 0 291.9 63.3" style="enable-background:new 0 0 291.9 63.3;" xml:space="preserve">
<style type="text/css">
	.st0{fill:#1D1D1B;}
</style>
<g>
	
		<g id="dff727ea-c914-4c1d-9325-86d683f65698" transform="matrix(1.8084622163430943,0,0,1.8084622163430943,110.4220895861043,123.09992096770425)">
		<path d="M-5.5-50.9L-5.5-50.9L-5.5-50.9c-0.1-0.3-0.2-0.7-0.2-1.2l0,0l0,0c0-0.5,0.2-2,0.5-4.4l0,0l0,0c0.3-2.4,0.5-4.4,0.5-5.9
			l0,0l0,0c0-0.3,0-0.8-0.1-1.4l0,0l0,0c0.9,0,1.4,0.3,1.6,0.6l0,0l0,0c0.1,0.2,0.2,0.4,0.2,0.6l0,0l0,0c0,0.2,0,0.5,0,0.9l0,0l0,0
			c0,0.4-0.2,1.9-0.6,4.6l0,0l0,0C-3.8-54.4-4-52.5-4-51.3l0,0l0,0c0.1,0,0.2,0,0.3,0l0,0l0,0c2.5,0,4.4-0.2,5.6-0.5l0,0l0,0
			c-0.1,0.7-0.3,1.2-0.7,1.6l0,0l0,0c-0.4,0.4-0.8,0.6-1.4,0.6l0,0l0,0c-0.2,0-0.7,0-1.5-0.1l0,0l0,0C-2.5-49.9-3.3-50-4.1-50l0,0
			l0,0c-0.8,0-1.6,0.1-2.4,0.2l0,0l0,0C-6.3-50.3-6-50.7-5.5-50.9z M5.9-56.7L5.9-56.7L5.9-56.7c-0.3,0.6-0.6,1.2-0.8,1.8l0,0l0,0
			c-0.2,0.6-0.3,1.2-0.3,1.7l0,0l0,0c0,0.6,0.1,1,0.4,1.4l0,0l0,0c0.2,0.4,0.6,0.6,1.1,0.6l0,0l0,0c0.7,0,1.3-0.4,1.8-1.1l0,0l0,0
			c0.6-0.7,1-1.6,1.3-2.6l0,0l0,0c0.3-1,0.5-1.9,0.5-2.8l0,0l0,0c0-0.9,0-1.6-0.1-2.1l0,0l0,0c0.3,0,0.4,0,0.5,0l0,0l0,0
			c1,0,1.5,0.5,1.5,1.5l0,0l0,0c0,0.2-0.1,1.1-0.4,2.7l0,0l0,0c-0.3,1.6-0.4,2.8-0.4,3.8l0,0l0,0c0,0.9,0.2,1.8,0.5,2.5l0,0l0,0
			c-0.7-0.1-1.3-0.5-1.6-1l0,0l0,0c-0.3-0.5-0.5-1.2-0.5-2.1l0,0l0,0c0-0.2,0-0.5,0.1-0.9l0,0l0,0c-0.3,1.1-0.9,2-1.6,2.6l0,0l0,0
			c-0.8,0.7-1.6,1-2.3,1l0,0l0,0c-0.8,0-1.4-0.3-1.8-0.9l0,0l0,0C3.2-51.1,3-51.9,3-52.9l0,0l0,0c0-1,0.2-2,0.6-3l0,0l0,0
			c0.4-1,0.9-1.8,1.7-2.5l0,0l0,0c0.8-0.7,1.6-1.1,2.5-1.1l0,0l0,0c0.4,0,0.8,0.1,1.3,0.2l0,0l0,0c-0.7,0.2-1.3,0.5-1.9,1l0,0l0,0
			C6.7-57.8,6.2-57.2,5.9-56.7z M23.3-61.9L23.3-61.9l0,0.2l0,0c0,0.4-0.2,1.9-0.5,4.3l0,0l0,0c-0.3,2.4-0.5,4.5-0.5,6.1l0,0l0,0
			c0,0.7,0,1.3,0.1,1.7l0,0l0,0c-0.3,0-0.4,0-0.5,0l0,0l0,0c-0.5,0-0.9-0.1-1.2-0.4l0,0l0,0c-0.2-0.2-0.4-0.6-0.4-1.2l0,0l0,0
			c0-0.5,0.2-2.2,0.6-4.9l0,0l0,0c0.4-2.7,0.6-4.7,0.6-5.9l0,0l0,0c0-1.2-0.1-1.9-0.2-2.3l0,0l0,0c0.4,0,0.7,0.2,1,0.4l0,0l0,0
			c0.3,0.2,0.6,0.5,0.7,0.9l0,0l0,0c0.9-0.5,1.9-0.7,2.9-0.7l0,0l0,0c1.1,0,1.9,0.3,2.5,1l0,0l0,0c0.6,0.7,0.9,1.5,0.9,2.4l0,0l0,0
			c0,1.2-0.4,2.3-1.3,3.3l0,0l0,0c-0.9,1-2.1,1.5-3.6,1.5l0,0l0,0c-0.3,0-0.7,0-1-0.1l0,0l0-0.6l0,0c0.8,0,1.5-0.1,2-0.3l0,0l0,0
			c0.6-0.2,1-0.5,1.3-0.9l0,0l0,0c0.6-0.7,0.9-1.6,0.9-2.6l0,0l0,0c0-0.7-0.2-1.3-0.7-1.8l0,0l0,0c-0.5-0.5-1.1-0.7-2-0.7l0,0l0,0
			C24.6-62.3,24-62.1,23.3-61.9z M33.3-56.7L33.3-56.7L33.3-56.7c-0.3,0.6-0.6,1.2-0.8,1.8l0,0l0,0c-0.2,0.6-0.3,1.2-0.3,1.7l0,0
			l0,0c0,0.6,0.1,1,0.4,1.4l0,0l0,0c0.2,0.4,0.6,0.6,1.1,0.6l0,0l0,0c0.6,0,1.2-0.4,1.8-1.1l0,0l0,0c0.6-0.7,1-1.6,1.3-2.6l0,0l0,0
			c0.3-1,0.5-1.9,0.5-2.8l0,0l0,0c0-0.9,0-1.6-0.1-2.1l0,0l0,0c0.3,0,0.5,0,0.5,0l0,0l0,0c1,0,1.5,0.5,1.5,1.5l0,0l0,0
			c0,0.2-0.1,1.1-0.4,2.7l0,0l0,0c-0.3,1.6-0.4,2.8-0.4,3.8l0,0l0,0c0,0.9,0.2,1.8,0.5,2.5l0,0l0,0c-0.7-0.1-1.3-0.5-1.6-1l0,0l0,0
			c-0.3-0.5-0.5-1.2-0.5-2.1l0,0l0,0c0-0.2,0-0.5,0.1-0.9l0,0l0,0c-0.3,1.1-0.9,2-1.6,2.6l0,0l0,0c-0.8,0.7-1.6,1-2.3,1l0,0l0,0
			c-0.8,0-1.4-0.3-1.8-0.9l0,0l0,0c-0.5-0.6-0.7-1.4-0.7-2.4l0,0l0,0c0-1,0.2-2,0.6-3l0,0l0,0c0.4-1,0.9-1.8,1.7-2.5l0,0l0,0
			c0.8-0.7,1.6-1.1,2.5-1.1l0,0l0,0c0.4,0,0.8,0.1,1.3,0.2l0,0l0,0c-0.7,0.2-1.3,0.5-1.9,1l0,0l0,0C34.1-57.8,33.7-57.2,33.3-56.7z
			 M49.9-57.4L49.9-57.4L49.9-57.4c0,0.5-0.1,1.5-0.3,2.8l0,0l0,0c-0.2,1.3-0.3,2.3-0.3,2.9l0,0l0,0c0,0.6,0.1,1.1,0.2,1.3l0,0l0,0
			c0.1,0.3,0.4,0.5,0.8,0.7l0,0l0,0c-0.2,0-0.4,0-0.6,0l0,0l0,0c-0.8,0-1.3-0.1-1.7-0.4l0,0l0,0c-0.3-0.3-0.5-0.8-0.5-1.6l0,0l0,0
			c0-0.4,0.1-1.3,0.3-2.6l0,0l0,0c0.2-1.3,0.3-2.3,0.3-2.9l0,0l0,0c0-0.8-0.2-1.1-0.7-1.1l0,0l0,0c-0.7,0-1.5,0.7-2.3,2l0,0l0,0
			c-0.8,1.3-1.2,2.9-1.2,4.7l0,0l0,0c0,0.7,0,1.3,0.1,1.7l0,0l0,0c-0.3,0-0.5,0-0.5,0l0,0l0,0c-1,0-1.5-0.5-1.5-1.5l0,0l0,0
			c0-0.2,0.1-1.1,0.4-2.7l0,0l0,0c0.2-1.5,0.4-2.8,0.4-3.7l0,0l0,0c0-0.9-0.1-1.8-0.3-2.5l0,0l0,0c0.7,0.3,1.2,0.6,1.4,1.1l0,0l0,0
			c0.3,0.5,0.4,1.1,0.4,1.7l0,0l0,0c0,0.6-0.1,1.4-0.2,2.2l0,0l0,0c0.4-1.3,1-2.4,1.8-3.3l0,0l0,0c0.8-0.9,1.6-1.3,2.3-1.3l0,0l0,0
			C49.3-59.9,49.9-59.1,49.9-57.4z M58.2-59.4L58.2-59.4L58.2-59.4c0,0.5-0.1,0.8-0.3,1l0,0l0,0c-0.2,0.2-0.5,0.3-0.8,0.3l0,0h-1.2
			l0,0c0,0.3-0.2,1-0.4,2.2l0,0l0,0c-0.4,2.1-0.6,3.8-0.6,4.9l0,0l0,0c0,1.1,0.1,1.8,0.2,2.2l0,0l0,0c-0.7-0.2-1.1-0.6-1.4-1.1l0,0
			l0,0c-0.3-0.5-0.4-1.1-0.4-1.8l0,0l0,0c0-0.7,0-1.4,0.1-2l0,0l0,0c0.1-0.6,0.2-1.4,0.4-2.2l0,0l0,0c0.2-0.8,0.3-1.5,0.3-2l0,0l0,0
			c-0.7,0.1-1.3,0.3-1.9,0.6l0,0l0,0c0-0.2,0-0.4,0-0.5l0,0l0,0c0-0.6,0.2-0.9,0.5-1.1l0,0l0,0c0.4-0.2,0.9-0.3,1.6-0.3l0,0l0,0
			c0.1-0.9,0.1-1.5,0.1-1.9l0,0l0,0c0-0.4,0-0.8,0-1l0,0l0,0c0-0.3,0-0.4,0-0.6l0,0l0,0c0.5,0.1,0.9,0.3,1.2,0.7l0,0l0,0
			c0.3,0.4,0.4,0.9,0.4,1.6l0,0l0,0c0,0.3,0,0.8-0.1,1.3l0,0l0,0c1,0,1.7-0.2,2.1-0.5l0,0l0,0C58.2-59.7,58.2-59.5,58.2-59.4z
			 M61.4-55.2L61.4-55.2c0.4-1.3,1-2.4,1.8-3.3l0,0l0,0c0.8-0.9,1.5-1.3,2.2-1.3l0,0l0,0c0.7,0,1.2,0.2,1.5,0.6l0,0l0,0
			c0.3,0.4,0.4,1,0.4,1.7l0,0l0,0c0,0.7-0.1,1.7-0.3,3l0,0l0,0c-0.2,1.3-0.3,2.3-0.3,2.9l0,0l0,0c0,0.6,0.1,1,0.2,1.3l0,0l0,0
			c0.1,0.3,0.4,0.5,0.8,0.7l0,0l0,0c-0.1,0-0.4,0-0.6,0l0,0l0,0c-0.7,0-1.3-0.2-1.6-0.5l0,0l0,0c-0.3-0.3-0.5-0.8-0.5-1.6l0,0l0,0
			c0-0.4,0.1-1.3,0.3-2.6l0,0l0,0c0.2-1.3,0.3-2.3,0.3-2.9l0,0l0,0c0-0.8-0.3-1.1-0.8-1.1l0,0l0,0c-0.3,0-0.7,0.2-1,0.5l0,0l0,0
			c-0.4,0.3-0.7,0.8-1.1,1.3l0,0l0,0c-0.3,0.6-0.6,1.3-0.9,2.1l0,0l0,0c-0.2,0.9-0.4,1.7-0.4,2.5l0,0l0,0c0,0.8,0,1.5,0.1,1.9l0,0
			l0,0c-0.3,0-0.4,0-0.5,0l0,0l0,0c-0.5,0-0.9-0.1-1.2-0.3l0,0l0,0c-0.3-0.2-0.4-0.6-0.4-1.1l0,0l0,0c0-0.5,0.1-1.4,0.3-2.8l0,0l0,0
			c0.6-4.3,0.9-7.6,0.9-9.8l0,0l0,0c0-1-0.1-1.7-0.2-2l0,0l0,0c0.7,0.2,1.1,0.6,1.4,1.1l0,0l0,0c0.3,0.5,0.4,1.1,0.4,2l0,0l0,0
			c0,0.6-0.1,1.8-0.3,3.6l0,0l0,0C61.7-57.4,61.5-56.1,61.4-55.2L61.4-55.2z M74.5-59L74.5-59L74.5-59c-0.7,0-1.3,0.4-1.8,1.2l0,0
			l0,0c-0.5,0.8-0.8,1.7-1,2.8l0,0h0.5l0,0c0.6,0,1.1-0.1,1.6-0.3l0,0l0,0c0.4-0.2,0.8-0.4,1-0.7l0,0l0,0c0.5-0.5,0.7-1.1,0.7-1.8
			l0,0l0,0c0-0.4-0.1-0.7-0.3-0.9l0,0l0,0C75.2-58.9,74.9-59,74.5-59z M77-52L77-52c-0.5,0.9-1.1,1.5-1.7,1.8l0,0l0,0
			c-0.6,0.3-1.4,0.5-2.2,0.5l0,0l0,0c-0.8,0-1.6-0.4-2.2-1.1l0,0l0,0c-0.6-0.7-0.9-1.8-0.9-3.1l0,0l0,0c0-1.5,0.4-2.9,1.2-4.1l0,0
			l0,0c0.4-0.6,0.9-1,1.6-1.4l0,0l0,0c0.7-0.4,1.4-0.5,2.2-0.5l0,0l0,0c1.7,0,2.6,0.8,2.6,2.5l0,0l0,0c0,1-0.4,1.8-1.2,2.4l0,0l0,0
			c-0.8,0.6-1.7,0.9-2.7,0.9l0,0l0,0c-0.7,0-1.3-0.1-1.8-0.2l0,0l0,0c0,0.1,0,0.3,0,0.5l0,0l0,0c0,2,0.6,3.1,1.8,3.1l0,0l0,0
			c1.1,0,2.1-0.6,2.8-1.7l0,0l0,0C76.8-52.4,77-52.2,77-52L77-52z M76.6-61.2L76.6-61.2L76.6-61.2c0,0.1-0.1,0.2-0.2,0.4l0,0l0,0
			c-0.1,0.1-0.2,0.2-0.4,0.2l0,0l0,0c-0.4-0.5-0.9-1-1.6-1.5l0,0l0,0c-0.7-0.5-1.3-0.9-2-1.1l0,0l0,0c0-0.6,0.3-1.1,0.8-1.4l0,0l0,0
			c0.6,0.2,1.2,0.7,1.9,1.4l0,0l0,0C75.9-62.5,76.3-61.8,76.6-61.2z M81.7-55.5L81.7-55.5c0.4-1.5,0.9-2.6,1.5-3.3l0,0l0,0
			c0.6-0.7,1.1-1.1,1.6-1.1l0,0l0,0c0.5,0,0.9,0.2,1.1,0.6l0,0l0,0c0.3,0.4,0.4,0.9,0.4,1.4l0,0l0,0c0,0.6-0.1,1.1-0.4,1.5l0,0l0,0
			c-0.3,0.4-0.7,0.6-1.3,0.6l0,0l0,0c-0.2,0-0.3,0-0.4,0l0,0l0,0c0.4-0.6,0.6-1.1,0.6-1.7l0,0l0,0c0-0.4-0.2-0.6-0.5-0.6l0,0l0,0
			c-0.3,0-0.5,0.2-0.8,0.5l0,0l0,0c-0.3,0.3-0.6,0.7-0.9,1.3l0,0l0,0c-0.3,0.6-0.5,1.3-0.7,2.2l0,0l0,0c-0.2,0.9-0.3,1.9-0.3,2.9
			l0,0l0,0c0,0.1,0,0.6,0.1,1.5l0,0l0,0c-0.3,0-0.5,0-0.5,0l0,0l0,0c-1,0-1.5-0.5-1.5-1.5l0,0l0,0c0-0.2,0.1-1.1,0.4-2.7l0,0l0,0
			c0.2-1.5,0.4-2.8,0.4-3.7l0,0l0,0c0-0.9-0.1-1.8-0.3-2.5l0,0l0,0c0.7,0.3,1.2,0.6,1.4,1.1l0,0l0,0c0.3,0.5,0.4,1.1,0.4,1.7l0,0
			l0,0C81.9-56.7,81.8-56.1,81.7-55.5L81.7-55.5z M91.9-59L91.9-59L91.9-59c-0.7,0-1.3,0.4-1.8,1.2l0,0l0,0c-0.5,0.8-0.8,1.7-1,2.8
			l0,0h0.5l0,0c0.6,0,1.1-0.1,1.6-0.3l0,0l0,0c0.4-0.2,0.8-0.4,1-0.7l0,0l0,0c0.5-0.5,0.7-1.1,0.7-1.8l0,0l0,0
			c0-0.4-0.1-0.7-0.3-0.9l0,0l0,0C92.6-58.9,92.3-59,91.9-59z M94.4-52L94.4-52c-0.5,0.9-1.1,1.5-1.7,1.8l0,0l0,0
			c-0.6,0.3-1.4,0.5-2.2,0.5l0,0l0,0c-0.8,0-1.6-0.4-2.2-1.1l0,0l0,0c-0.6-0.7-0.9-1.8-0.9-3.1l0,0l0,0c0-1.5,0.4-2.9,1.2-4.1l0,0
			l0,0c0.4-0.6,0.9-1,1.6-1.4l0,0l0,0c0.7-0.4,1.4-0.5,2.2-0.5l0,0l0,0c1.7,0,2.6,0.8,2.6,2.5l0,0l0,0c0,1-0.4,1.8-1.2,2.4l0,0l0,0
			c-0.8,0.6-1.7,0.9-2.7,0.9l0,0l0,0c-0.7,0-1.3-0.1-1.8-0.2l0,0l0,0c0,0.1,0,0.3,0,0.5l0,0l0,0c0,2,0.6,3.1,1.8,3.1l0,0l0,0
			c1.1,0,2.1-0.6,2.8-1.7l0,0l0,0C94.2-52.4,94.4-52.2,94.4-52L94.4-52z"/>
	</g>
	
		<g id="dfe8044c-91b6-4966-9038-a63642c35301" transform="matrix(0.6414999074478166,0,0,0.6414999074478166,37.325639709553826,117.89613952995941)">
		<path class="st0" d="M6.5-139.4L6.5-139.4c-0.9-1.7-2.5-3-4.4-3.5H2c-1-0.3-2-0.5-3.1-0.6c-2.8-0.4-5.6-1.4-8-2.9
			c-0.4-0.3-1-0.1-1.3,0.3c-0.2,0.4-0.1,0.9,0.2,1.2c0.8,0.5,1.6,1,2.5,1.4c0,0.1-0.1,0.2-0.1,0.4c-1.1,4,1.2,8.1,5.1,9.3
			c0.7,0.2,1.5,0.3,2.2,0.3c2.3,0,4.4-1,5.8-2.8c0.1,1.2,0,2.5-0.2,3.7c-0.2,0.5,0,1,0.5,1.2c0,0,0,0,0.1,0c0.1,0,0.2,0,0.3,0
			c0.4,0,0.8-0.3,0.9-0.6c0.4-1.7,0.5-3.4,0.3-5.1C7.1-137.8,6.9-138.6,6.5-139.4z M1-141.2c0,0.2,0,0.4,0,0.6
			c-0.2,0.9-1.1,1.4-2,1.1s-1.4-1.1-1.1-2c0-0.1,0.1-0.1,0.1-0.2l0.7,0.1C-0.5-141.5,0.2-141.4,1-141.2L1-141.2z M2.1-136
			c-1.3,0.7-2.9,0.8-4.3,0.4c-3-0.9-4.7-4-3.9-7v-0.1c0.7,0.3,1.4,0.5,2.1,0.7v0.1c-0.6,1.8,0.4,3.8,2.3,4.3s3.8-0.4,4.3-2.3
			c0.1-0.2,0.1-0.4,0.1-0.6c0.7,0.4,1.4,0.9,1.8,1.6C4.2-137.6,3.3-136.6,2.1-136L2.1-136z M35.7-143.1c0-0.1-0.1-0.2-0.1-0.4
			c0.9-0.4,1.7-0.9,2.5-1.4c0.4-0.3,0.5-0.9,0.2-1.3c-0.3-0.4-0.8-0.5-1.2-0.2c-2.4,1.6-5.1,2.6-8,2.9c-1.1,0.1-2.1,0.3-3.1,0.6
			h-0.1c-1.9,0.5-3.4,1.7-4.4,3.4v0.1c-0.4,0.7-0.6,1.6-0.7,2.4c-0.2,1.7-0.1,3.4,0.3,5.1c0.1,0.4,0.5,0.6,0.9,0.6
			c0.5,0,0.9-0.4,0.9-0.9c0-0.1,0-0.2-0.1-0.3c-0.3-1.2-0.3-2.5-0.2-3.7c1.4,1.8,3.5,2.8,5.8,2.8c0.7,0,1.5-0.1,2.2-0.3
			C34.5-134.9,36.8-139,35.7-143.1C35.7-143,35.7-143.1,35.7-143.1z M29.1-141.6l0.7-0.1c0,0.1,0.1,0.1,0.1,0.2
			c0.2,0.8-0.3,1.7-1.1,2c-0.8,0.3-1.7-0.2-2-1c-0.1-0.2-0.1-0.5-0.1-0.7C27.6-141.4,28.3-141.5,29.1-141.6L29.1-141.6z M30-135.6
			c-1.4,0.4-3,0.3-4.3-0.4c-1.2-0.6-2-1.7-2.5-2.9c0.5-0.7,1.1-1.2,1.8-1.6c0,0.2,0,0.3,0.1,0.5c0.4,1.5,1.8,2.5,3.3,2.5
			c1.9,0,3.4-1.6,3.4-3.5c0-0.3,0-0.5-0.1-0.8v-0.1c0.7-0.2,1.4-0.4,2.1-0.7v0.1C34.7-139.5,33-136.4,30-135.6z"/>
		<path class="st0" d="M9.4-140.8c-0.2-2.8-2.5-4.6-6.4-4.8c-2.1-0.3-4-1-5.8-2.1c-0.4-0.3-1-0.2-1.3,0.3c-0.3,0.4-0.2,1,0.3,1.3
			c2,1.3,4.3,2.1,6.7,2.4c1.7,0.1,4.5,0.7,4.7,3.1c0,0.5,0.4,0.9,0.9,0.9h0.1C9-139.9,9.4-140.3,9.4-140.8z M25.4-143.8
			c2.4-0.3,4.7-1.1,6.7-2.4c0.4-0.3,0.5-0.9,0.3-1.3c-0.3-0.4-0.9-0.5-1.3-0.3c-1.8,1.1-3.7,1.8-5.8,2.1c-3.8,0.3-6.2,2.1-6.4,4.8
			c0,0.5,0.4,1,0.9,1c0,0,0,0,0,0h0.1c0.5,0,0.9-0.4,0.9-0.9C21-143.2,23.8-143.7,25.4-143.8z M-5.1-150.3c0.3,0.4,0.9,0.5,1.3,0.2
			c0.4-0.3,0.5-0.9,0.2-1.3c0,0,0,0,0,0l-3.9-4.8c-0.3-0.4-0.9-0.5-1.3-0.2c-0.4,0.3-0.5,0.9-0.2,1.3c0,0,0,0,0,0L-5.1-150.3z
			 M-0.9-153c0.1,0.4,0.5,0.6,0.9,0.6c0.5,0,0.9-0.4,0.9-0.9c0-0.1,0-0.2-0.1-0.3l-1.7-4.6c-0.2-0.5-0.7-0.7-1.2-0.5
			c-0.5,0.2-0.7,0.7-0.5,1.2L-0.9-153z M4-152.8c0.5,0,0.9-0.4,0.9-0.9l0.3-3.9c0-0.5-0.3-1-0.8-1c0,0,0,0,0,0c-0.5,0-1,0.3-1,0.8
			c0,0,0,0,0,0l-0.3,3.9C3.1-153.3,3.5-152.9,4-152.8C4-152.8,4-152.8,4-152.8z"/>
		<path class="st0" d="M70-120.9c-4.8-1.5-16.2-1.4-25.4-1c6.2-7.8,6.2-15.3,5.1-18.9c-0.8-2.7-2.1-9.4-0.5-12
			c0.3-0.5,0.8-0.9,1.5-1c2.2-0.3,2.6-2.5,2.9-4.4c0.1-0.6,0.2-1.3,0.4-1.9c0.4-0.7,0.9-1.2,1.5-1.7c1.7-1.4,3.1-3.2,3.9-5.2
			c2-4.8-0.7-7.2-0.8-7.3c-0.1-0.1-0.2-0.1-0.3-0.2h-0.2c-2-0.5-4.2-0.2-5.9,0.9c-0.8,0.4-1.9,0.9-3.4,1.5c-3.3,1.7-7.3,1-9.9-1.6
			c-5.6-5.3-9.5-6.9-24.8-6.9s-19.2,1.6-24.7,6.9c-2.6,2.6-6.6,3.3-9.9,1.6c-1.2-0.5-2.3-1-3.4-1.5c-1.8-1.1-3.9-1.4-5.9-0.9h-0.2
			c-0.1,0-0.2,0.1-0.3,0.2c-0.1,0.1-2.7,2.5-0.8,7.3c0.8,2,2.2,3.8,3.9,5.2c0.6,0.4,1.1,1,1.5,1.7c0.1,0.6,0.2,1.3,0.2,2
			c0.3,1.8,0.7,4.1,2.9,4.4c0.6,0.1,1.2,0.4,1.5,1c1.7,2.6,0.4,9.3-0.5,12c-1.1,3.5-1.1,11.1,5.1,18.9c-9.2-0.4-20.6-0.6-25.4,1
			c-0.5,0.2-0.8,0.7-0.6,1.2c0.2,0.5,0.7,0.8,1.2,0.6c5.1-1.6,18.6-1.2,26.2-0.8h0.3l0.8,0.9c-9.5,0.1-15.9,0.8-19.2,2
			c-0.5,0.2-0.8,0.7-0.6,1.2c0.2,0.5,0.7,0.8,1.2,0.6c0,0,0,0,0,0c3.2-1.2,10.3-1.8,20.5-1.9c0.4,0.4,0.9,0.7,1.3,1.1
			c-8,0.4-21,1.5-26,3.7c-0.5,0.2-0.6,0.8-0.4,1.3c0.2,0.4,0.7,0.6,1.1,0.4c5.2-2.3,20-3.3,27.5-3.6l1.2,0.9l0.1,0.1
			c-7.8,0.8-13.1,1.7-15.8,2.9c-0.5,0.2-0.6,0.8-0.4,1.3c0.2,0.4,0.7,0.6,1.1,0.4c2.6-1.1,8-2.1,15.7-2.8c0,2.3,0.2,4.6,0.8,6.8
			c2,5.3,4.8,6.7,8,6.9C2.6-97,3.2-96.3,4-95.7c-1.7,1.6-3.2,3.4-4.2,5.5c-0.2,0.5,0.1,1,0.5,1.2s1-0.1,1.2-0.5
			c0.3-0.9,1.3-2.5,4.1-5.2c0.8,0.4,1.6,0.7,2.5,1c-0.6,1.3-1,2.8-1.1,4.2c0,0.5,0.4,0.9,0.9,1c0,0,0,0,0,0c0.5,0,0.9-0.4,0.9-0.9
			c0.2-1.4,0.5-2.7,1.1-3.9c2.7,0.4,5.4,0.4,8.1,0c0.6,1.2,1,2.6,1.1,3.9c0,0.5,0.4,0.9,0.9,0.9c0.5,0,0.9-0.5,0.9-1c0,0,0,0,0,0
			c-0.1-1.5-0.5-2.9-1.1-4.3c0.9-0.2,1.7-0.6,2.5-1c2.7,2.7,3.7,4.3,4.1,5.2c0.2,0.5,0.7,0.7,1.2,0.5s0.7-0.7,0.5-1.2
			c-1-2.1-2.5-4-4.2-5.5c0.8-0.6,1.4-1.4,1.9-2.2c3.2-0.3,6-1.6,8-6.9c0.6-2.2,0.8-4.5,0.8-6.7c7.8,0.7,13.2,1.7,15.7,2.8
			c0.5,0.2,1,0.1,1.3-0.4c0.2-0.5,0.1-1-0.4-1.3c0,0-0.1,0-0.1-0.1c-2.7-1.2-8.2-2.2-16.1-2.9l1-0.7l0.4-0.3
			c7.4,0.4,22.5,1.4,27.7,3.7c0.5,0.2,1-0.1,1.2-0.6c0.2-0.4,0-0.9-0.4-1.1c-5-2.2-18.1-3.2-26.1-3.7c0.5-0.4,0.9-0.7,1.4-1.1
			c10.2,0.1,17.3,0.7,20.5,1.9c0.5,0.2,1-0.1,1.2-0.6c0.2-0.5-0.1-1-0.5-1.2c-3.2-1.2-9.7-1.8-19.2-2l0.8-0.9h0.3
			c7.6-0.4,21.1-0.8,26.2,0.8c0.5,0.2,1.1-0.1,1.2-0.7C70.8-120.2,70.5-120.7,70-120.9z M18-97.5c-0.3-0.4-0.8-0.6-1.3-0.3
			c-0.4,0.3-0.6,0.8-0.3,1.3c0.2,0.3,0.5,0.9,0.8,1.5c-2.1,0.3-4.3,0.3-6.5,0c0.4-0.9,0.8-1.5,0.8-1.5c0.3-0.4,0.1-1-0.3-1.3
			c-0.4-0.3-1-0.1-1.3,0.3c0,0.1-0.5,0.9-1.1,2.1c-1.7-0.4-3.2-1.2-4.4-2.5h3c2.7,0,5.2-1.5,6.5-3.9c1.3,2.4,3.8,3.9,6.5,3.9h3
			c-1.2,1.2-2.7,2.1-4.4,2.5C18.5-96.6,18-97.4,18-97.5L18-97.5z M39.2-118.9L39.2-118.9c-1.1,0.9-2.3,1.8-3.4,2.5h-1
			c0.2-2.1,0.6-4,1.3-4.6c0.4-0.3,0.5-0.9,0.2-1.3c-0.3-0.4-0.9-0.5-1.3-0.2c-1.2,1-1.8,3.3-2,6h-0.8c-0.5,0-0.9,0.4-1,0.9
			c0,0,0,0,0,0.1c0,0.5,0.4,0.9,0.9,1c0,0,0,0,0,0h0.7v0.9h-0.2c-0.5,0-0.9,0.3-1,0.8c0,0.5,0.3,1,0.8,1h0.3c0,2.1-0.2,4.2-0.7,6.2
			c-1.7,4.6-3.8,5.6-6.9,5.8h-4.7c-3.1,0-5.5-2.5-5.6-5.5c0.4-0.4,0.9-0.8,1.4-1c1.2-0.8,3.1-1.9,2.4-3.5c-0.2-0.5-0.1-0.8,2.1-2.3
			l0.8-0.5c0.9-0.5,1.5-1.4,1.6-2.5c-0.1-0.8-0.5-1.5-1.2-2c-0.4-0.3-1-0.1-1.2,0.3c-0.2,0.4-0.1,1,0.3,1.2c0.1,0.1,0.3,0.3,0.3,0.5
			s-0.2,0.5-0.8,0.9l-0.8,0.5c-2,1.4-3.6,2.5-2.7,4.4c-0.1,0.3-1.1,0.9-1.6,1.2c-0.5,0.3-1,0.6-1.4,1c-0.4-0.3-0.9-0.7-1.4-1
			c-0.6-0.3-1.1-0.7-1.6-1.2c0.9-2.1-0.7-3.1-2.7-4.5l-0.8-0.5c-0.6-0.4-0.8-0.8-0.8-0.9s0.2-0.4,0.3-0.5c0.4-0.3,0.5-0.9,0.2-1.3
			c-0.3-0.4-0.8-0.5-1.2-0.3c-0.7,0.4-1.1,1.2-1.2,2c0.1,1,0.7,2,1.6,2.5l0.8,0.5c2.1,1.4,2.3,1.7,2.1,2.3c-0.7,1.6,1.1,2.7,2.4,3.5
			c0.5,0.3,1,0.6,1.4,1c0,3.1-2.5,5.6-5.6,5.6H5.5c-4.6,0.1-7.4,0.2-9.6-5.8c-0.5-2-0.7-4.1-0.7-6.2h0.3c0.5,0,0.9-0.5,0.8-1
			c0-0.5-0.5-0.9-1-0.8h-0.2v-0.9h0.7c0.5,0,0.9-0.4,0.9-0.9c0-0.5-0.4-0.9-0.9-0.9H-5c-0.2-2.7-0.7-4.9-2-6
			c-0.4-0.4-1.1-0.3-1.4,0.1c-0.4,0.4-0.3,1.1,0.1,1.4c0.8,0.6,1.1,2.5,1.3,4.6h-1.2c-1.1-0.8-2.1-1.6-3.1-2.5
			c-0.1-0.1-0.1-0.1-0.2-0.2c-0.3-0.3-0.6-0.6-0.9-0.9l2.9,0.2h0.1c0.5,0,0.9-0.4,1-0.9c0-0.5-0.4-0.9-0.9-1c0,0-1.9-0.1-4.9-0.3
			c-6.7-7.7-6.9-15.1-5.8-18.5c0-0.1,2.9-9.4,0.3-13.5c-0.6-1-1.6-1.6-2.7-1.8c-0.8-0.1-1-1.2-1.2-2.8c-0.1-0.8-0.3-1.5-0.5-2.3
			c-0.5-1-1.2-1.8-2-2.4c-1.5-1.2-2.7-2.8-3.4-4.5c-1.2-2.9-0.3-4.5,0.1-5c0.9-0.1,1.8,0.2,2.6,0.7c0.1,0.1,9.3,6.8,13.3,6.8h0.4
			c-3.7,2.7-5.9,6.1-5.9,9.4c0,0.5,0.4,0.9,0.9,0.9s0.9-0.4,0.9-0.9c0-3.5,3.2-7.3,8.2-9.7c1.9-0.3,3.8-0.9,5.5-1.8
			c0.5-0.2,0.6-0.8,0.4-1.3c-0.2-0.5-0.8-0.6-1.3-0.4c0,0,0,0,0,0c-2.9,1.4-6.1,2.1-9.3,2c-1.5,0-4.5-1.5-7.2-3.2
			c3.9,1.8,8.5,0.9,11.5-2.1c4.9-4.7,8-6.4,23.5-6.4s18.6,1.7,23.5,6.4c1.9,1.9,4.4,3,7.1,3c1.5,0,2.9-0.3,4.3-0.8
			c-2.7,1.6-5.7,3.1-7.2,3.1c-3.2,0.1-6.4-0.5-9.3-2c-0.5-0.2-1-0.1-1.3,0.4c-0.2,0.4-0.1,1,0.4,1.2c1.7,0.9,3.6,1.6,5.6,1.9
			c4.9,2.5,8.2,6.2,8.2,9.7c0,0.5,0.4,0.9,0.9,0.9c0.5,0,0.9-0.4,0.9-0.9c0-3.3-2.2-6.7-5.9-9.4h0.5c4,0,13.3-6.8,13.3-6.8
			c0.7-0.5,1.6-0.7,2.5-0.7c0.4,0.5,1.3,2.1,0.1,5c-0.7,1.8-1.9,3.3-3.4,4.5c-0.9,0.6-1.5,1.5-2,2.4c-0.3,0.7-0.4,1.5-0.5,2.3
			c-0.3,1.6-0.5,2.7-1.2,2.8c-1.2,0.1-2.2,0.8-2.8,1.8c-2.6,4.1,0.2,13.4,0.3,13.5c1.1,3.4,0.9,10.8-5.8,18.5
			c-3,0.2-4.9,0.3-4.9,0.3c-0.5,0-0.9,0.5-0.9,1s0.5,0.9,1,0.9h0.1l2.9-0.2C39.9-119.5,39.5-119.2,39.2-118.9z"/>
		<path class="st0" d="M32.2-149.9c0.3,0,0.5-0.1,0.7-0.3l3.9-4.8c0.3-0.4,0.3-1-0.1-1.3c-0.4-0.3-1-0.3-1.3,0.1c0,0,0,0,0,0
			l-3.9,4.8c-0.3,0.4-0.3,1,0.1,1.3C31.8-150,32-149.9,32.2-149.9L32.2-149.9z M27.6-152.4c0.1,0,0.2,0,0.3,0c0.4,0,0.7-0.2,0.9-0.6
			l1.7-4.6c0.2-0.5-0.1-1-0.5-1.2c-0.5-0.2-1,0.1-1.2,0.5l-1.7,4.6C26.9-153.2,27.1-152.7,27.6-152.4
			C27.6-152.4,27.6-152.4,27.6-152.4z M23.8-152.8c0.5,0,0.9-0.5,0.9-1c0,0,0,0,0,0l-0.3-3.9c0-0.5-0.5-0.9-1-0.9
			c-0.5,0-0.9,0.5-0.9,1l0.3,3.9C22.9-153.2,23.3-152.8,23.8-152.8C23.8-152.8,23.8-152.8,23.8-152.8z"/>
		<circle class="st0" cx="-0.8" cy="-110" r="1.3"/>
		<circle class="st0" cx="-0.3" cy="-105.6" r="1.3"/>
		<circle class="st0" cx="3.1" cy="-102.7" r="1.3"/>
		<circle class="st0" cx="4.2" cy="-107.2" r="1.3"/>
		<circle class="st0" cx="7.8" cy="-104.9" r="1.3"/>
		<circle class="st0" cx="28.6" cy="-110" r="1.3"/>
		<circle class="st0" cx="28.2" cy="-105.6" r="1.3"/>
		<circle class="st0" cx="24.8" cy="-102.7" r="1.3"/>
		<circle class="st0" cx="23.6" cy="-107.2" r="1.3"/>
		<circle class="st0" cx="20" cy="-104.9" r="1.3"/>
		<path class="st0" d="M18.3-131.4c-0.5,0-1,0.3-1,0.8c0,0,0,0,0,0c-0.4,2.5-1.5,4.9-3.4,6.7c-1.8-1.8-3-4.1-3.4-6.7
			c0-0.5-0.5-0.9-1-0.9c-0.5,0-0.9,0.5-0.9,1c0.4,3.3,2.1,6.3,4.6,8.5c0.2,0.1,0.4,0.2,0.6,0.2c0.2,0,0.4-0.1,0.6-0.2
			c2.5-2.2,4.2-5.2,4.6-8.5C19.1-130.9,18.8-131.3,18.3-131.4z M2-128.1c-0.4-0.2-1-0.1-1.2,0.3c-0.2,0.4-0.6,0.9-0.9,1.4
			c-1.7,2.4-4.2,6-0.6,9.9c0.4,0.3,1,0.3,1.3-0.1c0.3-0.3,0.3-0.8,0.1-1.1c-2.3-2.5-1.2-4.7,0.8-7.5c0.4-0.5,0.7-1,1-1.5
			C2.7-127.2,2.5-127.8,2-128.1C2.1-128,2-128.1,2-128.1z M27.1-127.7c-0.3-0.4-0.8-0.6-1.3-0.3c-0.4,0.3-0.6,0.8-0.3,1.3
			c0.3,0.5,0.6,1,1,1.5c1.9,2.8,3.1,5,0.8,7.5c-0.4,0.3-0.4,0.9-0.1,1.3c0.3,0.4,0.9,0.4,1.3,0.1c0.1-0.1,0.1-0.1,0.2-0.2
			c3.5-3.8,1-7.4-0.6-9.9C27.7-126.9,27.4-127.3,27.1-127.7z M3.9-116c0.2-0.5-0.1-1-0.6-1.2s-1,0.1-1.2,0.6c-0.7,2.3,0.3,4.8,2.4,6
			c0.4,0.3,1,0.1,1.3-0.3c0.3-0.4,0.1-1-0.3-1.3C4.1-112.9,3.4-114.5,3.9-116z M23.3-110.6c2.1-1.2,3.1-3.7,2.4-6
			c-0.2-0.5-0.7-0.8-1.2-0.6c-0.5,0.2-0.8,0.7-0.6,1.2l0,0c0.4,1.5-0.2,3-1.5,3.7c-0.4,0.3-0.6,0.8-0.3,1.3
			C22.3-110.5,22.9-110.4,23.3-110.6L23.3-110.6z M17.5-115.8c-1.7,2-4.7,2.2-6.7,0.5c-0.2-0.1-0.3-0.3-0.5-0.5
			c-0.3-0.4-0.9-0.4-1.3-0.1c-0.4,0.3-0.4,0.9-0.1,1.3c2.4,2.8,6.5,3.1,9.3,0.7c0.3-0.2,0.5-0.5,0.7-0.7c0.3-0.4,0.3-1-0.1-1.3
			C18.4-116.2,17.8-116.2,17.5-115.8L17.5-115.8L17.5-115.8z M-10.2-133.9c-0.4-0.3-1-0.2-1.3,0.3c-0.3,0.4-0.2,1,0.3,1.3
			c0,0,0.1,0.1,0.1,0.1c3.3,1.8,4.7,4.4,4.7,5.4c0,0.5,0.4,0.9,0.9,0.9s0.9-0.4,0.9-0.9C-4.5-128.8-6.7-131.9-10.2-133.9z
			 M39.4-133.5c-0.2-0.4-0.8-0.6-1.2-0.4c-3.5,1.9-5.7,5.1-5.7,7c0,0.5,0.4,0.9,0.9,0.9s0.9-0.4,0.9-0.9c0-1,1.4-3.6,4.7-5.4
			C39.4-132.5,39.6-133,39.4-133.5C39.4-133.5,39.4-133.5,39.4-133.5z"/>
	</g>
	
		<g id="_x35_afeb38c-54b7-45cf-8e8f-6e00f7dcb161" transform="matrix(0.4959242904269749,0,0,0.4959242904269749,111.69879049937542,160.64609744192566)">
		<path d="M-16.9-217.5l-1.4-3.6h-5.5l-1.4,3.6h-0.9l4.6-11.4h1l4.6,11.4H-16.9z M-23.5-221.9h4.8l-2-5l-0.4-1.2h0l-0.4,1.2
			L-23.5-221.9z M-1.1-223.1h4.7v5.6H2.9l0-2l0,0c-0.3,0.7-0.8,1.2-1.5,1.6l0,0l0,0c-0.7,0.4-1.5,0.6-2.5,0.6l0,0l0,0
			c-1,0-1.9-0.2-2.7-0.7l0,0l0,0c-0.8-0.5-1.4-1.2-1.8-2.1l0,0l0,0c-0.4-0.9-0.6-1.9-0.6-3.1l0,0l0,0c0-1.2,0.2-2.2,0.7-3.1l0,0l0,0
			c0.4-0.9,1-1.6,1.8-2.1l0,0l0,0c0.8-0.5,1.7-0.7,2.7-0.7l0,0l0,0c1.2,0,2.1,0.2,2.9,0.7l0,0l0,0c0.7,0.5,1.3,1.2,1.7,2.1l0,0
			l-0.8,0.4l0,0c-0.3-0.8-0.7-1.4-1.3-1.8l0,0l0,0c-0.6-0.4-1.4-0.6-2.4-0.6l0,0l0,0c-0.8,0-1.6,0.2-2.3,0.6l0,0l0,0
			c-0.6,0.4-1.1,1-1.5,1.8l0,0l0,0c-0.4,0.8-0.5,1.7-0.5,2.7l0,0l0,0c0,1.6,0.4,2.8,1.1,3.7l0,0l0,0c0.8,0.9,1.8,1.4,3.1,1.4l0,0
			l0,0c0.8,0,1.5-0.2,2.1-0.5l0,0l0,0c0.6-0.3,1-0.8,1.3-1.3l0,0l0,0c0.3-0.5,0.4-1.1,0.4-1.7l0,0v-0.6h-3.9V-223.1z M16.2-218.3
			h7.2v0.8h-8.1v-11.4h7.8v0.8h-6.9v4.4h5.5v0.8h-5.5V-218.3z M43.3-228.9v11.4h-1.1l-6.1-9l-0.8-1.5h0l0.1,1.4v9.1h-0.8v-11.4h1.1
			l6,9l0.9,1.5l0-1.4v-9.1H43.3z M64.6-220.4L64.6-220.4c-0.3,1-0.9,1.7-1.7,2.3l0,0l0,0c-0.8,0.5-1.8,0.8-2.9,0.8l0,0l0,0
			c-1,0-2-0.2-2.7-0.7l0,0l0,0c-0.8-0.5-1.4-1.2-1.8-2.1l0,0l0,0c-0.4-0.9-0.6-1.9-0.6-3.1l0,0l0,0c0-1.2,0.2-2.2,0.6-3.1l0,0l0,0
			c0.4-0.9,1-1.6,1.8-2.1l0,0l0,0c0.8-0.5,1.7-0.7,2.7-0.7l0,0l0,0c2.3,0,3.8,0.9,4.4,2.8l0,0l-0.9,0.4l0,0
			c-0.3-0.8-0.7-1.4-1.3-1.8l0,0l0,0c-0.6-0.4-1.3-0.6-2.3-0.6l0,0l0,0c-0.8,0-1.6,0.2-2.3,0.6l0,0l0,0c-0.7,0.4-1.2,1-1.5,1.8l0,0
			l0,0c-0.4,0.8-0.5,1.7-0.5,2.7l0,0l0,0c0,1,0.2,1.9,0.5,2.7l0,0l0,0c0.3,0.8,0.8,1.4,1.5,1.8l0,0l0,0c0.6,0.4,1.4,0.6,2.3,0.6l0,0
			l0,0c0.9,0,1.7-0.2,2.3-0.7l0,0l0,0c0.6-0.5,1.1-1.1,1.3-1.9l0,0L64.6-220.4z M76.7-218.3h7.2v0.8h-8.1v-11.4h7.8v0.8h-6.9v4.4
			h5.5v0.8h-5.5V-218.3z M112.8-228.9L112.8-228.9c1.8,0,3.2,0.5,4.2,1.4l0,0l0,0c1,1,1.5,2.4,1.5,4.2l0,0l0,0
			c0,1.9-0.5,3.3-1.5,4.3l0,0l0,0c-1,1-2.4,1.5-4.2,1.5l0,0h-3.6v-11.4H112.8z M112.8-218.3L112.8-218.3c1.5,0,2.7-0.4,3.5-1.3l0,0
			l0,0c0.8-0.9,1.2-2.1,1.2-3.7l0,0l0,0c0-1.5-0.4-2.7-1.2-3.6l0,0l0,0c-0.8-0.8-2-1.3-3.5-1.3l0,0H110v9.8H112.8z M130.9-218.3h7.2
			v0.8H130v-11.4h7.8v0.8h-6.9v4.4h5.5v0.8h-5.5V-218.3z M169-225.5l-2.3,8h-1.1l-3.6-11.4h0.9l3.2,10.7l3-10.7h1l3,10.7l3.2-10.7
			h0.9l-3.6,11.4h-1.1l-2.3-8l-0.6-2.5h0L169-225.5z M189.1-218.3h7.2v0.8h-8.1v-11.4h7.8v0.8h-7v4.4h5.5v0.8h-5.5V-218.3z
			 M207.5-217.5v-11.4h4l0,0c1.3,0,2.2,0.3,2.8,0.8l0,0l0,0c0.6,0.5,0.9,1.3,0.9,2.3l0,0l0,0c0,0.7-0.2,1.2-0.5,1.7l0,0l0,0
			c-0.4,0.5-0.9,0.8-1.5,0.9l0,0v0l0,0c0.7,0.1,1.3,0.4,1.8,0.9l0,0l0,0c0.4,0.5,0.7,1.1,0.7,1.8l0,0l0,0c0,1-0.4,1.7-1.1,2.3l0,0
			l0,0c-0.7,0.5-1.7,0.8-3,0.8l0,0H207.5z M208.3-223.6h3.2l0,0c1.9,0,2.8-0.7,2.8-2.2l0,0l0,0c0-1.5-0.9-2.2-2.8-2.2l0,0h-3.2
			V-223.6z M208.3-218.3h3.3l0,0c1,0,1.7-0.2,2.2-0.6l0,0l0,0c0.5-0.4,0.7-1,0.7-1.7l0,0l0,0c0-0.8-0.2-1.3-0.7-1.7l0,0l0,0
			c-0.5-0.4-1.2-0.6-2.2-0.6l0,0h-3.3V-218.3z M244.8-228.9L244.8-228.9c1.8,0,3.2,0.5,4.2,1.4l0,0l0,0c1,1,1.5,2.4,1.5,4.2l0,0l0,0
			c0,1.9-0.5,3.3-1.5,4.3l0,0l0,0c-1,1-2.4,1.5-4.2,1.5l0,0h-3.6v-11.4H244.8z M244.8-218.3L244.8-218.3c1.5,0,2.7-0.4,3.5-1.3l0,0
			l0,0c0.8-0.9,1.2-2.1,1.2-3.7l0,0l0,0c0-1.5-0.4-2.7-1.2-3.6l0,0l0,0c-0.8-0.8-2-1.3-3.5-1.3l0,0H242v9.8H244.8z M262.9-218.3h7.2
			v0.8H262v-11.4h7.8v0.8h-6.9v4.4h5.5v0.8h-5.5V-218.3z M284.8-229.1L284.8-229.1c2.2,0,3.6,0.8,4.3,2.5l0,0l-0.7,0.6l0,0
			c-0.3-0.8-0.7-1.4-1.3-1.8l0,0l0,0c-0.6-0.4-1.3-0.6-2.3-0.6l0,0l0,0c-0.7,0-1.3,0.1-1.8,0.3l0,0l0,0c-0.5,0.2-0.9,0.5-1.1,0.8
			l0,0l0,0c-0.3,0.4-0.4,0.8-0.4,1.2l0,0l0,0c0,0.4,0.1,0.8,0.3,1.1l0,0l0,0c0.2,0.3,0.6,0.5,1.1,0.7l0,0l0,0
			c0.5,0.2,1.3,0.4,2.2,0.5l0,0l0,0c1.5,0.3,2.5,0.6,3.2,1.1l0,0l0,0c0.6,0.5,0.9,1.1,0.9,2l0,0l0,0c0,0.6-0.2,1.2-0.5,1.6l0,0l0,0
			c-0.4,0.5-0.9,0.8-1.5,1.1l0,0l0,0c-0.7,0.3-1.4,0.4-2.3,0.4l0,0l0,0c-1.2,0-2.2-0.2-3-0.7l0,0l0,0c-0.8-0.5-1.4-1.2-1.7-2l0,0
			l0.8-0.6l0,0c0.2,0.8,0.7,1.5,1.4,1.9l0,0l0,0c0.7,0.4,1.6,0.7,2.6,0.7l0,0l0,0c1,0,1.8-0.2,2.4-0.6l0,0l0,0c0.6-0.4,1-1,1-1.7
			l0,0l0,0c0-0.6-0.3-1.1-0.8-1.4l0,0l0,0c-0.5-0.4-1.4-0.7-2.7-0.9l0,0l0,0c-1.1-0.2-1.9-0.4-2.5-0.7l0,0l0,0
			c-0.6-0.3-1.1-0.6-1.3-1l0,0l0,0c-0.3-0.4-0.4-0.9-0.4-1.5l0,0l0,0c0-0.6,0.2-1.1,0.5-1.6l0,0l0,0c0.3-0.5,0.8-0.9,1.5-1.2l0,0
			l0,0C283.2-228.9,283.9-229.1,284.8-229.1L284.8-229.1z M301.5-228.9v11.4h-0.9v-11.4H301.5z M318.2-223.1h4.7v5.6h-0.7l0-2l0,0
			c-0.3,0.7-0.8,1.2-1.5,1.6l0,0l0,0c-0.7,0.4-1.5,0.6-2.5,0.6l0,0l0,0c-1,0-1.9-0.2-2.7-0.7l0,0l0,0c-0.8-0.5-1.4-1.2-1.8-2.1l0,0
			l0,0c-0.4-0.9-0.6-1.9-0.6-3.1l0,0l0,0c0-1.2,0.2-2.2,0.6-3.1l0,0l0,0c0.4-0.9,1-1.6,1.8-2.1l0,0l0,0c0.8-0.5,1.7-0.7,2.7-0.7l0,0
			l0,0c1.2,0,2.1,0.2,2.9,0.7l0,0l0,0c0.7,0.5,1.3,1.2,1.7,2.1l0,0l-0.8,0.4l0,0c-0.3-0.8-0.7-1.4-1.3-1.8l0,0l0,0
			c-0.6-0.4-1.4-0.6-2.4-0.6l0,0l0,0c-0.9,0-1.6,0.2-2.3,0.6l0,0l0,0c-0.6,0.4-1.1,1-1.5,1.8l0,0l0,0c-0.4,0.8-0.5,1.7-0.5,2.7l0,0
			l0,0c0,1.6,0.4,2.8,1.1,3.7l0,0l0,0c0.8,0.9,1.8,1.4,3.1,1.4l0,0l0,0c0.8,0,1.5-0.2,2.1-0.5l0,0l0,0c0.6-0.3,1-0.8,1.3-1.3l0,0
			l0,0c0.3-0.5,0.4-1.1,0.4-1.7l0,0v-0.6h-3.9V-223.1z M343.3-228.9v11.4h-1.1l-6.1-9l-0.8-1.5h0l0,1.4v9.1h-0.8v-11.4h1.1l6,9
			l0.9,1.5l0-1.4v-9.1H343.3z"/>
	</g>
</g>
</svg>
